<svg width="382" height="176" viewBox="0 0 382 176" fill="none" xmlns="http://www.w3.org/2000/svg">
<rect width="382" height="176" rx="16" fill="white"/>
<rect x="0.5" y="0.5" width="381" height="175" rx="15.5" stroke="black" stroke-opacity="0.12"/>
<line x1="107.5" y1="-2.18557e-08" x2="107.5" y2="176" stroke="#96E6CF" stroke-opacity="0.6"/>
<line x1="382" y1="104.5" y2="104.5" stroke="#96E6CF" stroke-opacity="0.6"/>
<path d="M43.232 73.872C43.648 73.872 43.8933 73.84 43.968 73.776C44.0427 73.7013 44.08 73.456 44.08 73.04V70.656C44.08 70.56 44.032 70.512 43.936 70.512H36.592C36.5067 70.512 36.4533 70.5653 36.432 70.672C36.1547 72.336 35.52 73.744 34.528 74.896C34.3787 75.0773 34.1813 75.1733 33.936 75.184C33.7013 75.2053 33.488 75.1413 33.296 74.992C33.1147 74.8533 33.0133 74.6773 32.992 74.464C32.9707 74.2507 33.0293 74.0533 33.168 73.872C33.8187 73.0827 34.272 72.2027 34.528 71.232C34.784 70.2613 34.912 68.944 34.912 67.28V62.272C34.912 62.0267 35.0027 61.8133 35.184 61.632C35.3653 61.4507 35.5787 61.36 35.824 61.36H44.88C45.1253 61.36 45.3387 61.4507 45.52 61.632C45.7013 61.8133 45.792 62.0267 45.792 62.272V73.04C45.792 74.096 45.6693 74.7467 45.424 74.992C45.1893 75.2373 44.576 75.36 43.584 75.36C43.2107 75.36 42.576 75.344 41.68 75.312C41.4773 75.3013 41.3013 75.2213 41.152 75.072C41.0027 74.9333 40.9227 74.7573 40.912 74.544C40.9013 74.3413 40.9653 74.1653 41.104 74.016C41.2427 73.8773 41.4133 73.8133 41.616 73.824C42.448 73.856 42.9867 73.872 43.232 73.872ZM36.64 62.944V65.024C36.64 65.12 36.6827 65.168 36.768 65.168H43.936C44.032 65.168 44.08 65.12 44.08 65.024V62.944C44.08 62.848 44.032 62.8 43.936 62.8H36.768C36.6827 62.8 36.64 62.848 36.64 62.944ZM43.936 69.12C44.032 69.12 44.08 69.072 44.08 68.976V66.704C44.08 66.608 44.032 66.56 43.936 66.56H36.768C36.6827 66.56 36.64 66.608 36.64 66.704V67.952C36.64 68.208 36.6293 68.5493 36.608 68.976C36.608 69.072 36.6507 69.12 36.736 69.12H43.936ZM49.504 69.056C49.3227 68.896 49.216 68.704 49.184 68.48C49.152 68.256 49.216 68.0533 49.376 67.872C50.3893 66.752 51.6373 66.192 53.12 66.192C54.368 66.192 55.52 66.656 56.576 67.584C57.3867 68.288 58.1813 68.64 58.96 68.64C59.8667 68.64 60.672 68.272 61.376 67.536C61.536 67.3653 61.7333 67.2693 61.968 67.248C62.2027 67.216 62.4107 67.2747 62.592 67.424C62.7733 67.5733 62.8747 67.7653 62.896 68C62.928 68.2347 62.864 68.4427 62.704 68.624C61.6907 69.7333 60.4427 70.288 58.96 70.288C57.7227 70.288 56.576 69.824 55.52 68.896C54.7093 68.192 53.9093 67.84 53.12 67.84C52.2133 67.84 51.3973 68.2187 50.672 68.976C50.512 69.1467 50.32 69.2427 50.096 69.264C49.8827 69.2747 49.6853 69.2053 49.504 69.056ZM69.904 72.464C69.8293 72.6667 69.6907 72.816 69.488 72.912C69.2853 73.008 69.0773 73.024 68.864 72.96C68.6613 72.8853 68.5067 72.7467 68.4 72.544C68.1867 72.128 67.8933 71.616 67.52 71.008C67.4027 70.816 67.3707 70.6133 67.424 70.4C67.4773 70.1867 67.6 70.0267 67.792 69.92C67.9947 69.8133 68.208 69.792 68.432 69.856C68.656 69.9093 68.8267 70.032 68.944 70.224C69.264 70.7573 69.568 71.3013 69.856 71.856C69.9627 72.0587 69.9787 72.2613 69.904 72.464ZM75.248 70.224C75.3547 70.0213 75.5093 69.8827 75.712 69.808C75.9253 69.7333 76.1333 69.744 76.336 69.84C76.5387 69.936 76.6773 70.0907 76.752 70.304C76.8267 70.5067 76.8107 70.7093 76.704 70.912C76.4267 71.456 76.112 72.0107 75.76 72.576C75.6533 72.768 75.488 72.8907 75.264 72.944C75.0507 72.9973 74.848 72.9653 74.656 72.848C74.4747 72.7413 74.3573 72.5813 74.304 72.368C74.2507 72.1547 74.2773 71.9573 74.384 71.776C74.7573 71.1467 75.0453 70.6293 75.248 70.224ZM65.808 66.096C65.6267 66.1813 65.44 66.1867 65.248 66.112C65.0667 66.0373 64.9333 65.904 64.848 65.712C64.7627 65.5307 64.7573 65.344 64.832 65.152C64.9067 64.96 65.0347 64.8213 65.216 64.736C67.04 63.84 68.7467 62.8053 70.336 61.632C70.848 61.2587 71.392 61.072 71.968 61.072H72.256C72.832 61.072 73.376 61.2587 73.888 61.632C75.4773 62.8053 77.184 63.84 79.008 64.736C79.1893 64.8213 79.3173 64.96 79.392 65.152C79.4667 65.344 79.4613 65.5307 79.376 65.712C79.2907 65.904 79.152 66.0373 78.96 66.112C78.7787 66.1867 78.5973 66.1813 78.416 66.096C77.8613 65.84 77.168 65.4827 76.336 65.024C76.3147 65.0133 76.2933 65.0187 76.272 65.04C76.2613 65.0507 76.2613 65.0613 76.272 65.072C76.2933 65.1147 76.304 65.1893 76.304 65.296C76.304 65.488 76.2347 65.6533 76.096 65.792C75.968 65.9307 75.808 66 75.616 66H73.136C73.04 66 72.992 66.048 72.992 66.144V67.696C72.992 67.792 73.04 67.84 73.136 67.84H77.648C77.84 67.84 78.0053 67.9093 78.144 68.048C78.2827 68.1867 78.352 68.352 78.352 68.544C78.352 68.736 78.2827 68.9013 78.144 69.04C78.0053 69.1787 77.84 69.248 77.648 69.248H73.136C73.04 69.248 72.992 69.2907 72.992 69.376V73.472C72.992 73.5573 73.04 73.6 73.136 73.6H78.272C78.4747 73.6 78.6453 73.6693 78.784 73.808C78.9227 73.9467 78.992 74.1173 78.992 74.32C78.992 74.5227 78.9227 74.6933 78.784 74.832C78.6453 74.9707 78.4747 75.04 78.272 75.04H65.952C65.7493 75.04 65.5787 74.9707 65.44 74.832C65.3013 74.6933 65.232 74.5227 65.232 74.32C65.232 74.1173 65.3013 73.9467 65.44 73.808C65.5787 73.6693 65.7493 73.6 65.952 73.6H71.088C71.184 73.6 71.232 73.5573 71.232 73.472V69.376C71.232 69.2907 71.184 69.248 71.088 69.248H66.576C66.384 69.248 66.2187 69.1787 66.08 69.04C65.9413 68.9013 65.872 68.736 65.872 68.544C65.872 68.352 65.9413 68.1867 66.08 68.048C66.2187 67.9093 66.384 67.84 66.576 67.84H71.088C71.184 67.84 71.232 67.792 71.232 67.696V66.144C71.232 66.048 71.184 66 71.088 66H68.608C68.416 66 68.2507 65.9307 68.112 65.792C67.984 65.6533 67.92 65.488 67.92 65.296C67.92 65.1893 67.9307 65.1147 67.952 65.072C67.9627 65.0613 67.9573 65.0507 67.936 65.04C67.9253 65.0187 67.9093 65.0133 67.888 65.024C67.056 65.4827 66.3627 65.84 65.808 66.096ZM72.016 62.288C71.0133 63.0773 69.92 63.824 68.736 64.528C68.7253 64.5387 68.72 64.5547 68.72 64.576C68.72 64.5867 68.7307 64.592 68.752 64.592H75.472C75.4933 64.592 75.504 64.5867 75.504 64.576C75.504 64.5547 75.4987 64.5387 75.488 64.528C74.304 63.824 73.2107 63.0773 72.208 62.288C72.144 62.2453 72.08 62.2453 72.016 62.288Z" fill="black" fill-opacity="0.87"/>
<path d="M164.7 64.28C164.18 63.4 163.38 62.96 162.3 62.96C161.22 62.96 160.413 63.4 159.88 64.28C159.36 65.1467 159.1 66.62 159.1 68.7C159.1 70.78 159.36 72.26 159.88 73.14C160.413 74.0067 161.22 74.44 162.3 74.44C163.38 74.44 164.18 74.0067 164.7 73.14C165.233 72.26 165.5 70.78 165.5 68.7C165.5 66.62 165.233 65.1467 164.7 64.28ZM166.34 74.42C165.447 75.6067 164.1 76.2 162.3 76.2C160.5 76.2 159.147 75.6067 158.24 74.42C157.347 73.2333 156.9 71.3267 156.9 68.7C156.9 66.0733 157.347 64.1667 158.24 62.98C159.147 61.7933 160.5 61.2 162.3 61.2C164.1 61.2 165.447 61.7933 166.34 62.98C167.247 64.1667 167.7 66.0733 167.7 68.7C167.7 71.3267 167.247 73.2333 166.34 74.42ZM174.798 63C173.824 63 173.064 63.28 172.518 63.84C171.971 64.3867 171.698 65.1733 171.698 66.2C171.698 67.2533 171.978 68.0733 172.538 68.66C173.111 69.2467 173.864 69.54 174.798 69.54C175.718 69.54 176.458 69.24 177.018 68.64C177.578 68.04 177.858 67.2267 177.858 66.2C177.858 65.24 177.564 64.4667 176.978 63.88C176.404 63.2933 175.678 63 174.798 63ZM174.298 71.2C172.804 71.2 171.631 70.76 170.778 69.88C169.924 68.9867 169.498 67.76 169.498 66.2C169.498 64.6667 169.978 63.4533 170.938 62.56C171.898 61.6533 173.184 61.2 174.798 61.2C178.331 61.2 180.098 63.3333 180.098 67.6C180.098 70.5733 179.571 72.7533 178.518 74.14C177.478 75.5133 175.938 76.2 173.898 76.2C173.271 76.2 172.578 76.1333 171.818 76C171.538 75.9467 171.311 75.8133 171.138 75.6C170.978 75.3733 170.898 75.12 170.898 74.84C170.898 74.6 170.991 74.4133 171.178 74.28C171.364 74.1467 171.578 74.1067 171.818 74.16C172.498 74.32 173.191 74.4 173.898 74.4C175.031 74.4 175.938 74.0267 176.618 73.28C177.311 72.52 177.678 71.44 177.718 70.04C177.718 70.0133 177.711 70 177.698 70H177.658C176.858 70.8 175.738 71.2 174.298 71.2ZM191.035 74.6C190.729 74.6 190.462 74.4867 190.235 74.26C190.009 74.0333 189.895 73.7667 189.895 73.46V72.74C189.895 72.4333 190.009 72.1667 190.235 71.94C190.462 71.7133 190.729 71.6 191.035 71.6H191.355C191.662 71.6 191.929 71.7133 192.155 71.94C192.382 72.1667 192.495 72.4333 192.495 72.74V73.46C192.495 73.7667 192.382 74.0333 192.155 74.26C191.929 74.4867 191.662 74.6 191.355 74.6H191.035ZM191.035 66C190.729 66 190.462 65.8867 190.235 65.66C190.009 65.4333 189.895 65.1667 189.895 64.86V64.14C189.895 63.8333 190.009 63.5667 190.235 63.34C190.462 63.1133 190.729 63 191.035 63H191.355C191.662 63 191.929 63.1133 192.155 63.34C192.382 63.5667 192.495 63.8333 192.495 64.14V64.86C192.495 65.1667 192.382 65.4333 192.155 65.66C191.929 65.8867 191.662 66 191.355 66H191.035ZM209.895 64.28C209.375 63.4 208.575 62.96 207.495 62.96C206.415 62.96 205.609 63.4 205.075 64.28C204.555 65.1467 204.295 66.62 204.295 68.7C204.295 70.78 204.555 72.26 205.075 73.14C205.609 74.0067 206.415 74.44 207.495 74.44C208.575 74.44 209.375 74.0067 209.895 73.14C210.429 72.26 210.695 70.78 210.695 68.7C210.695 66.62 210.429 65.1467 209.895 64.28ZM211.535 74.42C210.642 75.6067 209.295 76.2 207.495 76.2C205.695 76.2 204.342 75.6067 203.435 74.42C202.542 73.2333 202.095 71.3267 202.095 68.7C202.095 66.0733 202.542 64.1667 203.435 62.98C204.342 61.7933 205.695 61.2 207.495 61.2C209.295 61.2 210.642 61.7933 211.535 62.98C212.442 64.1667 212.895 66.0733 212.895 68.7C212.895 71.3267 212.442 73.2333 211.535 74.42ZM222.493 64.28C221.973 63.4 221.173 62.96 220.093 62.96C219.013 62.96 218.206 63.4 217.673 64.28C217.153 65.1467 216.893 66.62 216.893 68.7C216.893 70.78 217.153 72.26 217.673 73.14C218.206 74.0067 219.013 74.44 220.093 74.44C221.173 74.44 221.973 74.0067 222.493 73.14C223.026 72.26 223.293 70.78 223.293 68.7C223.293 66.62 223.026 65.1467 222.493 64.28ZM224.133 74.42C223.24 75.6067 221.893 76.2 220.093 76.2C218.293 76.2 216.94 75.6067 216.033 74.42C215.14 73.2333 214.693 71.3267 214.693 68.7C214.693 66.0733 215.14 64.1667 216.033 62.98C216.94 61.7933 218.293 61.2 220.093 61.2C221.893 61.2 223.24 61.7933 224.133 62.98C225.04 64.1667 225.493 66.0733 225.493 68.7C225.493 71.3267 225.04 73.2333 224.133 74.42ZM233.338 70.72C233.164 70.5733 233.058 70.3933 233.018 70.18C232.991 69.9667 233.044 69.7667 233.178 69.58C234.044 68.5267 235.084 68 236.298 68C237.338 68 238.298 68.4333 239.178 69.3C239.844 69.94 240.498 70.26 241.138 70.26C241.831 70.26 242.444 69.9733 242.978 69.4C243.138 69.24 243.318 69.1467 243.518 69.12C243.731 69.0933 243.924 69.1467 244.098 69.28C244.284 69.4267 244.391 69.6067 244.418 69.82C244.458 70.0333 244.404 70.2333 244.258 70.42C243.404 71.4733 242.364 72 241.138 72C240.111 72 239.151 71.5667 238.258 70.7C237.604 70.06 236.951 69.74 236.298 69.74C235.618 69.74 235.004 70.0267 234.458 70.6C234.311 70.76 234.131 70.8533 233.918 70.88C233.704 70.9067 233.511 70.8533 233.338 70.72ZM254.06 66.28C253.874 66.4267 253.68 66.4533 253.48 66.36C253.28 66.2533 253.18 66.0867 253.18 65.86V65.74C253.18 64.98 253.474 64.3667 254.06 63.9L256.32 62.08C256.894 61.6267 257.547 61.4 258.28 61.4C258.587 61.4 258.847 61.5067 259.06 61.72C259.274 61.9333 259.38 62.1933 259.38 62.5V74.9C259.38 75.2067 259.274 75.4667 259.06 75.68C258.847 75.8933 258.587 76 258.28 76C257.974 76 257.714 75.8933 257.5 75.68C257.287 75.4667 257.18 75.2067 257.18 74.9V63.82C257.18 63.8067 257.174 63.8 257.16 63.8L257.12 63.82L254.06 66.28ZM269.778 63C268.805 63 268.045 63.28 267.498 63.84C266.951 64.3867 266.678 65.1733 266.678 66.2C266.678 67.2533 266.958 68.0733 267.518 68.66C268.091 69.2467 268.845 69.54 269.778 69.54C270.698 69.54 271.438 69.24 271.998 68.64C272.558 68.04 272.838 67.2267 272.838 66.2C272.838 65.24 272.545 64.4667 271.958 63.88C271.385 63.2933 270.658 63 269.778 63ZM269.278 71.2C267.785 71.2 266.611 70.76 265.758 69.88C264.905 68.9867 264.478 67.76 264.478 66.2C264.478 64.6667 264.958 63.4533 265.918 62.56C266.878 61.6533 268.165 61.2 269.778 61.2C273.311 61.2 275.078 63.3333 275.078 67.6C275.078 70.5733 274.551 72.7533 273.498 74.14C272.458 75.5133 270.918 76.2 268.878 76.2C268.251 76.2 267.558 76.1333 266.798 76C266.518 75.9467 266.291 75.8133 266.118 75.6C265.958 75.3733 265.878 75.12 265.878 74.84C265.878 74.6 265.971 74.4133 266.158 74.28C266.345 74.1467 266.558 74.1067 266.798 74.16C267.478 74.32 268.171 74.4 268.878 74.4C270.011 74.4 270.918 74.0267 271.598 73.28C272.291 72.52 272.658 71.44 272.698 70.04C272.698 70.0133 272.691 70 272.678 70H272.638C271.838 70.8 270.718 71.2 269.278 71.2ZM286.016 74.6C285.709 74.6 285.442 74.4867 285.216 74.26C284.989 74.0333 284.876 73.7667 284.876 73.46V72.74C284.876 72.4333 284.989 72.1667 285.216 71.94C285.442 71.7133 285.709 71.6 286.016 71.6H286.336C286.642 71.6 286.909 71.7133 287.136 71.94C287.362 72.1667 287.476 72.4333 287.476 72.74V73.46C287.476 73.7667 287.362 74.0333 287.136 74.26C286.909 74.4867 286.642 74.6 286.336 74.6H286.016ZM286.016 66C285.709 66 285.442 65.8867 285.216 65.66C284.989 65.4333 284.876 65.1667 284.876 64.86V64.14C284.876 63.8333 284.989 63.5667 285.216 63.34C285.442 63.1133 285.709 63 286.016 63H286.336C286.642 63 286.909 63.1133 287.136 63.34C287.362 63.5667 287.476 63.8333 287.476 64.14V64.86C287.476 65.1667 287.362 65.4333 287.136 65.66C286.909 65.8867 286.642 66 286.336 66H286.016ZM304.876 64.28C304.356 63.4 303.556 62.96 302.476 62.96C301.396 62.96 300.589 63.4 300.056 64.28C299.536 65.1467 299.276 66.62 299.276 68.7C299.276 70.78 299.536 72.26 300.056 73.14C300.589 74.0067 301.396 74.44 302.476 74.44C303.556 74.44 304.356 74.0067 304.876 73.14C305.409 72.26 305.676 70.78 305.676 68.7C305.676 66.62 305.409 65.1467 304.876 64.28ZM306.516 74.42C305.622 75.6067 304.276 76.2 302.476 76.2C300.676 76.2 299.322 75.6067 298.416 74.42C297.522 73.2333 297.076 71.3267 297.076 68.7C297.076 66.0733 297.522 64.1667 298.416 62.98C299.322 61.7933 300.676 61.2 302.476 61.2C304.276 61.2 305.622 61.7933 306.516 62.98C307.422 64.1667 307.876 66.0733 307.876 68.7C307.876 71.3267 307.422 73.2333 306.516 74.42ZM317.473 64.28C316.953 63.4 316.153 62.96 315.073 62.96C313.993 62.96 313.187 63.4 312.653 64.28C312.133 65.1467 311.873 66.62 311.873 68.7C311.873 70.78 312.133 72.26 312.653 73.14C313.187 74.0067 313.993 74.44 315.073 74.44C316.153 74.44 316.953 74.0067 317.473 73.14C318.007 72.26 318.273 70.78 318.273 68.7C318.273 66.62 318.007 65.1467 317.473 64.28ZM319.113 74.42C318.22 75.6067 316.873 76.2 315.073 76.2C313.273 76.2 311.92 75.6067 311.013 74.42C310.12 73.2333 309.673 71.3267 309.673 68.7C309.673 66.0733 310.12 64.1667 311.013 62.98C311.92 61.7933 313.273 61.2 315.073 61.2C316.873 61.2 318.22 61.7933 319.113 62.98C320.02 64.1667 320.473 66.0733 320.473 68.7C320.473 71.3267 320.02 73.2333 319.113 74.42Z" fill="#1BC896"/>
<path d="M164.7 136.28C164.18 135.4 163.38 134.96 162.3 134.96C161.22 134.96 160.413 135.4 159.88 136.28C159.36 137.147 159.1 138.62 159.1 140.7C159.1 142.78 159.36 144.26 159.88 145.14C160.413 146.007 161.22 146.44 162.3 146.44C163.38 146.44 164.18 146.007 164.7 145.14C165.233 144.26 165.5 142.78 165.5 140.7C165.5 138.62 165.233 137.147 164.7 136.28ZM166.34 146.42C165.447 147.607 164.1 148.2 162.3 148.2C160.5 148.2 159.147 147.607 158.24 146.42C157.347 145.233 156.9 143.327 156.9 140.7C156.9 138.073 157.347 136.167 158.24 134.98C159.147 133.793 160.5 133.2 162.3 133.2C164.1 133.2 165.447 133.793 166.34 134.98C167.247 136.167 167.7 138.073 167.7 140.7C167.7 143.327 167.247 145.233 166.34 146.42ZM174.798 135C173.824 135 173.064 135.28 172.518 135.84C171.971 136.387 171.698 137.173 171.698 138.2C171.698 139.253 171.978 140.073 172.538 140.66C173.111 141.247 173.864 141.54 174.798 141.54C175.718 141.54 176.458 141.24 177.018 140.64C177.578 140.04 177.858 139.227 177.858 138.2C177.858 137.24 177.564 136.467 176.978 135.88C176.404 135.293 175.678 135 174.798 135ZM174.298 143.2C172.804 143.2 171.631 142.76 170.778 141.88C169.924 140.987 169.498 139.76 169.498 138.2C169.498 136.667 169.978 135.453 170.938 134.56C171.898 133.653 173.184 133.2 174.798 133.2C178.331 133.2 180.098 135.333 180.098 139.6C180.098 142.573 179.571 144.753 178.518 146.14C177.478 147.513 175.938 148.2 173.898 148.2C173.271 148.2 172.578 148.133 171.818 148C171.538 147.947 171.311 147.813 171.138 147.6C170.978 147.373 170.898 147.12 170.898 146.84C170.898 146.6 170.991 146.413 171.178 146.28C171.364 146.147 171.578 146.107 171.818 146.16C172.498 146.32 173.191 146.4 173.898 146.4C175.031 146.4 175.938 146.027 176.618 145.28C177.311 144.52 177.678 143.44 177.718 142.04C177.718 142.013 177.711 142 177.698 142H177.658C176.858 142.8 175.738 143.2 174.298 143.2ZM191.035 146.6C190.729 146.6 190.462 146.487 190.235 146.26C190.009 146.033 189.895 145.767 189.895 145.46V144.74C189.895 144.433 190.009 144.167 190.235 143.94C190.462 143.713 190.729 143.6 191.035 143.6H191.355C191.662 143.6 191.929 143.713 192.155 143.94C192.382 144.167 192.495 144.433 192.495 144.74V145.46C192.495 145.767 192.382 146.033 192.155 146.26C191.929 146.487 191.662 146.6 191.355 146.6H191.035ZM191.035 138C190.729 138 190.462 137.887 190.235 137.66C190.009 137.433 189.895 137.167 189.895 136.86V136.14C189.895 135.833 190.009 135.567 190.235 135.34C190.462 135.113 190.729 135 191.035 135H191.355C191.662 135 191.929 135.113 192.155 135.34C192.382 135.567 192.495 135.833 192.495 136.14V136.86C192.495 137.167 192.382 137.433 192.155 137.66C191.929 137.887 191.662 138 191.355 138H191.035ZM209.895 136.28C209.375 135.4 208.575 134.96 207.495 134.96C206.415 134.96 205.609 135.4 205.075 136.28C204.555 137.147 204.295 138.62 204.295 140.7C204.295 142.78 204.555 144.26 205.075 145.14C205.609 146.007 206.415 146.44 207.495 146.44C208.575 146.44 209.375 146.007 209.895 145.14C210.429 144.26 210.695 142.78 210.695 140.7C210.695 138.62 210.429 137.147 209.895 136.28ZM211.535 146.42C210.642 147.607 209.295 148.2 207.495 148.2C205.695 148.2 204.342 147.607 203.435 146.42C202.542 145.233 202.095 143.327 202.095 140.7C202.095 138.073 202.542 136.167 203.435 134.98C204.342 133.793 205.695 133.2 207.495 133.2C209.295 133.2 210.642 133.793 211.535 134.98C212.442 136.167 212.895 138.073 212.895 140.7C212.895 143.327 212.442 145.233 211.535 146.42ZM222.493 136.28C221.973 135.4 221.173 134.96 220.093 134.96C219.013 134.96 218.206 135.4 217.673 136.28C217.153 137.147 216.893 138.62 216.893 140.7C216.893 142.78 217.153 144.26 217.673 145.14C218.206 146.007 219.013 146.44 220.093 146.44C221.173 146.44 221.973 146.007 222.493 145.14C223.026 144.26 223.293 142.78 223.293 140.7C223.293 138.62 223.026 137.147 222.493 136.28ZM224.133 146.42C223.24 147.607 221.893 148.2 220.093 148.2C218.293 148.2 216.94 147.607 216.033 146.42C215.14 145.233 214.693 143.327 214.693 140.7C214.693 138.073 215.14 136.167 216.033 134.98C216.94 133.793 218.293 133.2 220.093 133.2C221.893 133.2 223.24 133.793 224.133 134.98C225.04 136.167 225.493 138.073 225.493 140.7C225.493 143.327 225.04 145.233 224.133 146.42ZM233.338 142.72C233.164 142.573 233.058 142.393 233.018 142.18C232.991 141.967 233.044 141.767 233.178 141.58C234.044 140.527 235.084 140 236.298 140C237.338 140 238.298 140.433 239.178 141.3C239.844 141.94 240.498 142.26 241.138 142.26C241.831 142.26 242.444 141.973 242.978 141.4C243.138 141.24 243.318 141.147 243.518 141.12C243.731 141.093 243.924 141.147 244.098 141.28C244.284 141.427 244.391 141.607 244.418 141.82C244.458 142.033 244.404 142.233 244.258 142.42C243.404 143.473 242.364 144 241.138 144C240.111 144 239.151 143.567 238.258 142.7C237.604 142.06 236.951 141.74 236.298 141.74C235.618 141.74 235.004 142.027 234.458 142.6C234.311 142.76 234.131 142.853 233.918 142.88C233.704 142.907 233.511 142.853 233.338 142.72ZM254.06 138.28C253.874 138.427 253.68 138.453 253.48 138.36C253.28 138.253 253.18 138.087 253.18 137.86V137.74C253.18 136.98 253.474 136.367 254.06 135.9L256.32 134.08C256.894 133.627 257.547 133.4 258.28 133.4C258.587 133.4 258.847 133.507 259.06 133.72C259.274 133.933 259.38 134.193 259.38 134.5V146.9C259.38 147.207 259.274 147.467 259.06 147.68C258.847 147.893 258.587 148 258.28 148C257.974 148 257.714 147.893 257.5 147.68C257.287 147.467 257.18 147.207 257.18 146.9V135.82C257.18 135.807 257.174 135.8 257.16 135.8L257.12 135.82L254.06 138.28ZM273.638 135.82L269.998 139.36C269.985 139.373 269.978 139.387 269.978 139.4C269.978 139.413 269.985 139.42 269.998 139.42H270.378C271.671 139.42 272.678 139.767 273.398 140.46C274.118 141.14 274.478 142.12 274.478 143.4C274.478 144.92 274.011 146.1 273.078 146.94C272.158 147.78 270.858 148.2 269.178 148.2C268.231 148.2 267.291 148.073 266.358 147.82C266.065 147.74 265.825 147.58 265.638 147.34C265.465 147.087 265.378 146.8 265.378 146.48C265.378 146.24 265.478 146.053 265.678 145.92C265.891 145.787 266.111 145.76 266.338 145.84C267.391 146.213 268.338 146.4 269.178 146.4C270.165 146.4 270.925 146.14 271.458 145.62C272.005 145.1 272.278 144.36 272.278 143.4C272.278 142.587 271.985 141.987 271.398 141.6C270.825 141.2 269.885 141 268.578 141H268.018C267.791 141 267.591 140.92 267.418 140.76C267.258 140.587 267.178 140.387 267.178 140.16C267.178 139.587 267.378 139.113 267.778 138.74L271.458 135.26C271.471 135.247 271.478 135.233 271.478 135.22C271.478 135.207 271.471 135.2 271.458 135.2H266.178C265.925 135.2 265.711 135.113 265.538 134.94C265.365 134.767 265.278 134.553 265.278 134.3C265.278 134.047 265.365 133.833 265.538 133.66C265.711 133.487 265.925 133.4 266.178 133.4H273.378C273.631 133.4 273.845 133.487 274.018 133.66C274.191 133.833 274.278 134.047 274.278 134.3C274.278 134.913 274.065 135.42 273.638 135.82ZM286.016 146.6C285.709 146.6 285.442 146.487 285.216 146.26C284.989 146.033 284.876 145.767 284.876 145.46V144.74C284.876 144.433 284.989 144.167 285.216 143.94C285.442 143.713 285.709 143.6 286.016 143.6H286.336C286.642 143.6 286.909 143.713 287.136 143.94C287.362 144.167 287.476 144.433 287.476 144.74V145.46C287.476 145.767 287.362 146.033 287.136 146.26C286.909 146.487 286.642 146.6 286.336 146.6H286.016ZM286.016 138C285.709 138 285.442 137.887 285.216 137.66C284.989 137.433 284.876 137.167 284.876 136.86V136.14C284.876 135.833 284.989 135.567 285.216 135.34C285.442 135.113 285.709 135 286.016 135H286.336C286.642 135 286.909 135.113 287.136 135.34C287.362 135.567 287.476 135.833 287.476 136.14V136.86C287.476 137.167 287.362 137.433 287.136 137.66C286.909 137.887 286.642 138 286.336 138H286.016ZM304.876 136.28C304.356 135.4 303.556 134.96 302.476 134.96C301.396 134.96 300.589 135.4 300.056 136.28C299.536 137.147 299.276 138.62 299.276 140.7C299.276 142.78 299.536 144.26 300.056 145.14C300.589 146.007 301.396 146.44 302.476 146.44C303.556 146.44 304.356 146.007 304.876 145.14C305.409 144.26 305.676 142.78 305.676 140.7C305.676 138.62 305.409 137.147 304.876 136.28ZM306.516 146.42C305.622 147.607 304.276 148.2 302.476 148.2C300.676 148.2 299.322 147.607 298.416 146.42C297.522 145.233 297.076 143.327 297.076 140.7C297.076 138.073 297.522 136.167 298.416 134.98C299.322 133.793 300.676 133.2 302.476 133.2C304.276 133.2 305.622 133.793 306.516 134.98C307.422 136.167 307.876 138.073 307.876 140.7C307.876 143.327 307.422 145.233 306.516 146.42ZM317.473 136.28C316.953 135.4 316.153 134.96 315.073 134.96C313.993 134.96 313.187 135.4 312.653 136.28C312.133 137.147 311.873 138.62 311.873 140.7C311.873 142.78 312.133 144.26 312.653 145.14C313.187 146.007 313.993 146.44 315.073 146.44C316.153 146.44 316.953 146.007 317.473 145.14C318.007 144.26 318.273 142.78 318.273 140.7C318.273 138.62 318.007 137.147 317.473 136.28ZM319.113 146.42C318.22 147.607 316.873 148.2 315.073 148.2C313.273 148.2 311.92 147.607 311.013 146.42C310.12 145.233 309.673 143.327 309.673 140.7C309.673 138.073 310.12 136.167 311.013 134.98C311.92 133.793 313.273 133.2 315.073 133.2C316.873 133.2 318.22 133.793 319.113 134.98C320.02 136.167 320.473 138.073 320.473 140.7C320.473 143.327 320.02 145.233 319.113 146.42Z" fill="#1BC896"/>
<path d="M33.632 146.8C33.4187 146.8 33.2373 146.725 33.088 146.576C32.9493 146.427 32.88 146.251 32.88 146.048C32.88 145.835 32.9547 145.653 33.104 145.504C33.2533 145.355 33.4293 145.28 33.632 145.28H38.976C39.072 145.28 39.12 145.232 39.12 145.136V138.976C39.12 138.88 39.072 138.832 38.976 138.832H34.736C34.5333 138.832 34.3573 138.763 34.208 138.624C34.0693 138.485 34 138.309 34 138.096C34 137.883 34.0693 137.707 34.208 137.568C34.3573 137.429 34.5333 137.36 34.736 137.36H38.976C39.072 137.36 39.12 137.312 39.12 137.216V134.192C39.12 133.957 39.2053 133.755 39.376 133.584C39.5467 133.413 39.7547 133.328 40 133.328C40.2453 133.328 40.4533 133.413 40.624 133.584C40.7947 133.755 40.88 133.957 40.88 134.192V137.216C40.88 137.312 40.928 137.36 41.024 137.36H45.264C45.4667 137.36 45.6373 137.429 45.776 137.568C45.9253 137.707 46 137.883 46 138.096C46 138.309 45.9253 138.485 45.776 138.624C45.6373 138.763 45.4667 138.832 45.264 138.832H41.024C40.928 138.832 40.88 138.88 40.88 138.976V145.136C40.88 145.232 40.928 145.28 41.024 145.28H46.368C46.5707 145.28 46.7467 145.355 46.896 145.504C47.0453 145.653 47.12 145.835 47.12 146.048C47.12 146.251 47.0453 146.427 46.896 146.576C46.7573 146.725 46.5813 146.8 46.368 146.8H33.632ZM49.936 146.96C49.712 146.96 49.52 146.88 49.36 146.72C49.2 146.56 49.12 146.368 49.12 146.144V134.592C49.12 134.347 49.2107 134.133 49.392 133.952C49.5733 133.771 49.7867 133.68 50.032 133.68H52.608C52.8533 133.68 53.0667 133.771 53.248 133.952C53.4293 134.133 53.52 134.347 53.52 134.592V141.296C53.52 141.317 53.5253 141.333 53.536 141.344C53.5573 141.355 53.5787 141.355 53.6 141.344C54.2293 140.587 54.7733 139.755 55.232 138.848C55.2747 138.763 55.248 138.72 55.152 138.72H54.72C54.5493 138.72 54.4 138.661 54.272 138.544C54.144 138.416 54.08 138.261 54.08 138.08C54.08 137.899 54.144 137.749 54.272 137.632C54.4 137.504 54.5493 137.44 54.72 137.44H56.416C56.512 137.44 56.56 137.397 56.56 137.312V136.736C56.56 136.651 56.512 136.608 56.416 136.608H54.784C54.6347 136.608 54.5067 136.555 54.4 136.448C54.2933 136.341 54.24 136.213 54.24 136.064C54.24 135.915 54.2933 135.787 54.4 135.68C54.5067 135.573 54.6347 135.52 54.784 135.52H56.416C56.512 135.52 56.56 135.477 56.56 135.392V134.864C56.56 134.768 56.512 134.72 56.416 134.72H54.752C54.5707 134.72 54.4107 134.656 54.272 134.528C54.144 134.389 54.08 134.229 54.08 134.048C54.08 133.867 54.144 133.707 54.272 133.568C54.4107 133.429 54.5707 133.36 54.752 133.36H57.296C57.5413 133.36 57.7493 133.451 57.92 133.632C58.1013 133.813 58.192 134.027 58.192 134.272V137.808C58.192 138.053 58.1013 138.267 57.92 138.448C57.7493 138.629 57.5413 138.72 57.296 138.72H57.152C57.0773 138.72 57.0187 138.768 56.976 138.864C56.9227 139.003 56.832 139.211 56.704 139.488C56.6613 139.563 56.688 139.6 56.784 139.6H58.928C59.024 139.6 59.088 139.557 59.12 139.472C59.1733 139.344 59.2427 139.141 59.328 138.864C59.3493 138.779 59.3227 138.725 59.248 138.704C59.0987 138.672 58.976 138.597 58.88 138.48C58.7947 138.363 58.752 138.229 58.752 138.08C58.752 137.899 58.816 137.749 58.944 137.632C59.072 137.504 59.2213 137.44 59.392 137.44H61.216C61.312 137.44 61.36 137.397 61.36 137.312V136.736C61.36 136.651 61.312 136.608 61.216 136.608H59.456C59.3067 136.608 59.1787 136.555 59.072 136.448C58.9653 136.341 58.912 136.213 58.912 136.064C58.912 135.915 58.9653 135.787 59.072 135.68C59.1787 135.573 59.3067 135.52 59.456 135.52H61.216C61.312 135.52 61.36 135.477 61.36 135.392V134.864C61.36 134.768 61.312 134.72 61.216 134.72H59.44C59.2587 134.72 59.0987 134.656 58.96 134.528C58.8213 134.389 58.752 134.229 58.752 134.048C58.752 133.867 58.8213 133.707 58.96 133.568C59.0987 133.429 59.2587 133.36 59.44 133.36H62.128C62.3733 133.36 62.5867 133.451 62.768 133.632C62.9493 133.813 63.04 134.027 63.04 134.272V137.808C63.04 138.053 62.9493 138.267 62.768 138.448C62.5867 138.629 62.3733 138.72 62.128 138.72H61.168C61.0933 138.72 61.0453 138.763 61.024 138.848C61.024 138.859 61.024 138.864 61.024 138.864L61.008 138.896L60.816 139.472C60.7947 139.557 60.8213 139.6 60.896 139.6H62.4C62.5707 139.6 62.72 139.664 62.848 139.792C62.976 139.92 63.04 140.069 63.04 140.24C63.04 140.411 62.976 140.56 62.848 140.688C62.72 140.816 62.5707 140.88 62.4 140.88H60.608C60.5227 140.88 60.48 140.928 60.48 141.024V141.552C60.48 141.637 60.5227 141.68 60.608 141.68H62.256C62.4053 141.68 62.5333 141.733 62.64 141.84C62.7467 141.947 62.8 142.075 62.8 142.224C62.8 142.373 62.7467 142.501 62.64 142.608C62.5333 142.704 62.4053 142.752 62.256 142.752H60.608C60.5227 142.752 60.48 142.8 60.48 142.896V143.424C60.48 143.52 60.5227 143.568 60.608 143.568H62.256C62.4053 143.568 62.5333 143.621 62.64 143.728C62.7467 143.824 62.8 143.947 62.8 144.096C62.8 144.245 62.7467 144.373 62.64 144.48C62.5333 144.587 62.4053 144.64 62.256 144.64H60.608C60.5227 144.64 60.48 144.688 60.48 144.784V145.296C60.48 145.392 60.5227 145.44 60.608 145.44H62.592C62.7733 145.44 62.9333 145.509 63.072 145.648C63.2107 145.776 63.28 145.931 63.28 146.112C63.28 146.293 63.2107 146.453 63.072 146.592C62.9333 146.731 62.7733 146.8 62.592 146.8H56.4C56.3467 146.8 56.32 146.827 56.32 146.88C56.32 147.029 56.2613 147.157 56.144 147.264C56.0373 147.381 55.9093 147.44 55.76 147.44H55.472C55.2373 147.44 55.04 147.355 54.88 147.184C54.72 147.024 54.64 146.827 54.64 146.592V142.704C54.64 142.683 54.6293 142.672 54.608 142.672C54.5973 142.672 54.5867 142.677 54.576 142.688C54.5653 142.699 54.5547 142.72 54.544 142.752C54.5333 142.773 54.5227 142.789 54.512 142.8C54.4267 142.949 54.2987 143.051 54.128 143.104C53.9573 143.157 53.7973 143.152 53.648 143.088C53.5627 143.067 53.52 143.088 53.52 143.152V145.088C53.52 145.333 53.4293 145.547 53.248 145.728C53.0667 145.909 52.8533 146 52.608 146H50.88C50.7947 146 50.752 146.043 50.752 146.128C50.752 146.363 50.672 146.56 50.512 146.72C50.3627 146.88 50.1707 146.96 49.936 146.96ZM58.8 145.296V144.784C58.8 144.688 58.752 144.64 58.656 144.64H56.464C56.368 144.64 56.32 144.688 56.32 144.784V145.296C56.32 145.392 56.368 145.44 56.464 145.44H58.656C58.752 145.44 58.8 145.392 58.8 145.296ZM58.8 143.424V142.896C58.8 142.8 58.752 142.752 58.656 142.752H56.464C56.368 142.752 56.32 142.8 56.32 142.896V143.424C56.32 143.52 56.368 143.568 56.464 143.568H58.656C58.752 143.568 58.8 143.52 58.8 143.424ZM58.656 140.88H56.464C56.368 140.88 56.32 140.928 56.32 141.024V141.552C56.32 141.637 56.368 141.68 56.464 141.68H58.656C58.752 141.68 58.8 141.637 58.8 141.552V141.024C58.8 140.928 58.752 140.88 58.656 140.88ZM50.752 135.216V138.832C50.752 138.917 50.8 138.96 50.896 138.96H51.872C51.9573 138.96 52 138.917 52 138.832V135.216C52 135.131 51.9573 135.088 51.872 135.088H50.896C50.8 135.088 50.752 135.131 50.752 135.216ZM50.752 140.464V144.496C50.752 144.592 50.8 144.64 50.896 144.64H51.872C51.9573 144.64 52 144.592 52 144.496V140.464C52 140.368 51.9573 140.32 51.872 140.32H50.896C50.8 140.32 50.752 140.368 50.752 140.464ZM67.104 147.28C66.8693 147.28 66.6667 147.195 66.496 147.024C66.3253 146.853 66.24 146.651 66.24 146.416V134.432C66.24 134.187 66.3307 133.973 66.512 133.792C66.6933 133.611 66.9067 133.52 67.152 133.52H76.848C77.0933 133.52 77.3067 133.611 77.488 133.792C77.6693 133.973 77.76 134.187 77.76 134.432V146.416C77.76 146.651 77.6747 146.853 77.504 147.024C77.3333 147.195 77.1307 147.28 76.896 147.28H76.88C76.6453 147.28 76.448 147.2 76.288 147.04C76.128 146.88 76.048 146.683 76.048 146.448C76.048 146.363 76.0053 146.32 75.92 146.32H68.08C68.0053 146.32 67.968 146.363 67.968 146.448C67.968 146.683 67.8827 146.88 67.712 147.04C67.552 147.2 67.3547 147.28 67.12 147.28H67.104ZM67.968 135.136V138.896C67.968 138.992 68.0107 139.04 68.096 139.04H75.904C76 139.04 76.048 138.992 76.048 138.896V135.136C76.048 135.04 76 134.992 75.904 134.992H68.096C68.0107 134.992 67.968 135.04 67.968 135.136ZM67.968 140.624V144.752C67.968 144.837 68.0107 144.88 68.096 144.88H75.904C76 144.88 76.048 144.837 76.048 144.752V140.624C76.048 140.528 76 140.48 75.904 140.48H68.096C68.0107 140.48 67.968 140.528 67.968 140.624Z" fill="black" fill-opacity="0.87"/>
<path d="M0 16C0 7.16344 7.16344 0 16 0H366C374.837 0 382 7.16344 382 16V32H0V16Z" fill="#1BC896" fill-opacity="0.46"/>
<path d="M33.694 22.84C33.498 22.84 33.33 22.77 33.19 22.63C33.05 22.49 32.98 22.322 32.98 22.126V12.018C32.98 11.8033 33.0593 11.6167 33.218 11.458C33.3767 11.2993 33.5633 11.22 33.778 11.22H36.032C36.2467 11.22 36.4333 11.2993 36.592 11.458C36.7507 11.6167 36.83 11.8033 36.83 12.018V17.884C36.83 17.9027 36.8347 17.9167 36.844 17.926C36.8627 17.9353 36.8813 17.9353 36.9 17.926C37.4507 17.2633 37.9267 16.5353 38.328 15.742C38.3653 15.6673 38.342 15.63 38.258 15.63H37.88C37.7307 15.63 37.6 15.5787 37.488 15.476C37.376 15.364 37.32 15.2287 37.32 15.07C37.32 14.9113 37.376 14.7807 37.488 14.678C37.6 14.566 37.7307 14.51 37.88 14.51H39.364C39.448 14.51 39.49 14.4727 39.49 14.398V13.894C39.49 13.8193 39.448 13.782 39.364 13.782H37.936C37.8053 13.782 37.6933 13.7353 37.6 13.642C37.5067 13.5487 37.46 13.4367 37.46 13.306C37.46 13.1753 37.5067 13.0633 37.6 12.97C37.6933 12.8767 37.8053 12.83 37.936 12.83H39.364C39.448 12.83 39.49 12.7927 39.49 12.718V12.256C39.49 12.172 39.448 12.13 39.364 12.13H37.908C37.7493 12.13 37.6093 12.074 37.488 11.962C37.376 11.8407 37.32 11.7007 37.32 11.542C37.32 11.3833 37.376 11.2433 37.488 11.122C37.6093 11.0007 37.7493 10.94 37.908 10.94H40.134C40.3487 10.94 40.5307 11.0193 40.68 11.178C40.8387 11.3367 40.918 11.5233 40.918 11.738V14.832C40.918 15.0467 40.8387 15.2333 40.68 15.392C40.5307 15.5507 40.3487 15.63 40.134 15.63H40.008C39.9427 15.63 39.8913 15.672 39.854 15.756C39.8073 15.8773 39.728 16.0593 39.616 16.302C39.5787 16.3673 39.602 16.4 39.686 16.4H41.562C41.646 16.4 41.702 16.3627 41.73 16.288C41.7767 16.176 41.8373 15.9987 41.912 15.756C41.9307 15.6813 41.9073 15.6347 41.842 15.616C41.7113 15.588 41.604 15.5227 41.52 15.42C41.4453 15.3173 41.408 15.2007 41.408 15.07C41.408 14.9113 41.464 14.7807 41.576 14.678C41.688 14.566 41.8187 14.51 41.968 14.51H43.564C43.648 14.51 43.69 14.4727 43.69 14.398V13.894C43.69 13.8193 43.648 13.782 43.564 13.782H42.024C41.8933 13.782 41.7813 13.7353 41.688 13.642C41.5947 13.5487 41.548 13.4367 41.548 13.306C41.548 13.1753 41.5947 13.0633 41.688 12.97C41.7813 12.8767 41.8933 12.83 42.024 12.83H43.564C43.648 12.83 43.69 12.7927 43.69 12.718V12.256C43.69 12.172 43.648 12.13 43.564 12.13H42.01C41.8513 12.13 41.7113 12.074 41.59 11.962C41.4687 11.8407 41.408 11.7007 41.408 11.542C41.408 11.3833 41.4687 11.2433 41.59 11.122C41.7113 11.0007 41.8513 10.94 42.01 10.94H44.362C44.5767 10.94 44.7633 11.0193 44.922 11.178C45.0807 11.3367 45.16 11.5233 45.16 11.738V14.832C45.16 15.0467 45.0807 15.2333 44.922 15.392C44.7633 15.5507 44.5767 15.63 44.362 15.63H43.522C43.4567 15.63 43.4147 15.6673 43.396 15.742C43.396 15.7513 43.396 15.756 43.396 15.756L43.382 15.784L43.214 16.288C43.1953 16.3627 43.2187 16.4 43.284 16.4H44.6C44.7493 16.4 44.88 16.456 44.992 16.568C45.104 16.68 45.16 16.8107 45.16 16.96C45.16 17.1093 45.104 17.24 44.992 17.352C44.88 17.464 44.7493 17.52 44.6 17.52H43.032C42.9573 17.52 42.92 17.562 42.92 17.646V18.108C42.92 18.1827 42.9573 18.22 43.032 18.22H44.474C44.6047 18.22 44.7167 18.2667 44.81 18.36C44.9033 18.4533 44.95 18.5653 44.95 18.696C44.95 18.8267 44.9033 18.9387 44.81 19.032C44.7167 19.116 44.6047 19.158 44.474 19.158H43.032C42.9573 19.158 42.92 19.2 42.92 19.284V19.746C42.92 19.83 42.9573 19.872 43.032 19.872H44.474C44.6047 19.872 44.7167 19.9187 44.81 20.012C44.9033 20.096 44.95 20.2033 44.95 20.334C44.95 20.4647 44.9033 20.5767 44.81 20.67C44.7167 20.7633 44.6047 20.81 44.474 20.81H43.032C42.9573 20.81 42.92 20.852 42.92 20.936V21.384C42.92 21.468 42.9573 21.51 43.032 21.51H44.768C44.9267 21.51 45.0667 21.5707 45.188 21.692C45.3093 21.804 45.37 21.9393 45.37 22.098C45.37 22.2567 45.3093 22.3967 45.188 22.518C45.0667 22.6393 44.9267 22.7 44.768 22.7H39.35C39.3033 22.7 39.28 22.7233 39.28 22.77C39.28 22.9007 39.2287 23.0127 39.126 23.106C39.0327 23.2087 38.9207 23.26 38.79 23.26H38.538C38.3327 23.26 38.16 23.1853 38.02 23.036C37.88 22.896 37.81 22.7233 37.81 22.518V19.116C37.81 19.0973 37.8007 19.088 37.782 19.088C37.7727 19.088 37.7633 19.0927 37.754 19.102C37.7447 19.1113 37.7353 19.13 37.726 19.158C37.7167 19.1767 37.7073 19.1907 37.698 19.2C37.6233 19.3307 37.5113 19.4193 37.362 19.466C37.2127 19.5127 37.0727 19.508 36.942 19.452C36.8673 19.4333 36.83 19.452 36.83 19.508V21.202C36.83 21.4167 36.7507 21.6033 36.592 21.762C36.4333 21.9207 36.2467 22 36.032 22H34.52C34.4453 22 34.408 22.0373 34.408 22.112C34.408 22.3173 34.338 22.49 34.198 22.63C34.0673 22.77 33.8993 22.84 33.694 22.84ZM41.45 21.384V20.936C41.45 20.852 41.408 20.81 41.324 20.81H39.406C39.322 20.81 39.28 20.852 39.28 20.936V21.384C39.28 21.468 39.322 21.51 39.406 21.51H41.324C41.408 21.51 41.45 21.468 41.45 21.384ZM41.45 19.746V19.284C41.45 19.2 41.408 19.158 41.324 19.158H39.406C39.322 19.158 39.28 19.2 39.28 19.284V19.746C39.28 19.83 39.322 19.872 39.406 19.872H41.324C41.408 19.872 41.45 19.83 41.45 19.746ZM41.324 17.52H39.406C39.322 17.52 39.28 17.562 39.28 17.646V18.108C39.28 18.1827 39.322 18.22 39.406 18.22H41.324C41.408 18.22 41.45 18.1827 41.45 18.108V17.646C41.45 17.562 41.408 17.52 41.324 17.52ZM34.408 12.564V15.728C34.408 15.8027 34.45 15.84 34.534 15.84H35.388C35.4627 15.84 35.5 15.8027 35.5 15.728V12.564C35.5 12.4893 35.4627 12.452 35.388 12.452H34.534C34.45 12.452 34.408 12.4893 34.408 12.564ZM34.408 17.156V20.684C34.408 20.768 34.45 20.81 34.534 20.81H35.388C35.4627 20.81 35.5 20.768 35.5 20.684V17.156C35.5 17.072 35.4627 17.03 35.388 17.03H34.534C34.45 17.03 34.408 17.072 34.408 17.156ZM48.716 23.12C48.5107 23.12 48.3333 23.0453 48.184 22.896C48.0347 22.7467 47.96 22.5693 47.96 22.364V11.878C47.96 11.6633 48.0393 11.4767 48.198 11.318C48.3567 11.1593 48.5433 11.08 48.758 11.08H57.242C57.4567 11.08 57.6433 11.1593 57.802 11.318C57.9607 11.4767 58.04 11.6633 58.04 11.878V22.364C58.04 22.5693 57.9653 22.7467 57.816 22.896C57.6667 23.0453 57.4893 23.12 57.284 23.12H57.27C57.0647 23.12 56.892 23.05 56.752 22.91C56.612 22.77 56.542 22.5973 56.542 22.392C56.542 22.3173 56.5047 22.28 56.43 22.28H49.57C49.5047 22.28 49.472 22.3173 49.472 22.392C49.472 22.5973 49.3973 22.77 49.248 22.91C49.108 23.05 48.9353 23.12 48.73 23.12H48.716ZM49.472 12.494V15.784C49.472 15.868 49.5093 15.91 49.584 15.91H56.416C56.5 15.91 56.542 15.868 56.542 15.784V12.494C56.542 12.41 56.5 12.368 56.416 12.368H49.584C49.5093 12.368 49.472 12.41 49.472 12.494ZM49.472 17.296V20.908C49.472 20.9827 49.5093 21.02 49.584 21.02H56.416C56.5 21.02 56.542 20.9827 56.542 20.908V17.296C56.542 17.212 56.5 17.17 56.416 17.17H49.584C49.5093 17.17 49.472 17.212 49.472 17.296Z" fill="black" fill-opacity="0.6"/>
<path d="M161.67 18.43L161.922 17.716C161.941 17.632 161.917 17.59 161.852 17.59H160.368H159.668C159.453 17.59 159.267 17.5107 159.108 17.352C158.949 17.1933 158.87 17.0067 158.87 16.792V14.706C158.87 14.4913 158.949 14.3093 159.108 14.16C159.267 14.0013 159.453 13.922 159.668 13.922H166.332C166.547 13.922 166.733 14.0013 166.892 14.16C167.051 14.3093 167.13 14.4913 167.13 14.706V16.792C167.13 17.0067 167.051 17.1933 166.892 17.352C166.733 17.5107 166.547 17.59 166.332 17.59H163.672C163.588 17.59 163.537 17.6273 163.518 17.702L163.28 18.416C163.261 18.4907 163.289 18.528 163.364 18.528H167.242C167.457 18.528 167.643 18.6073 167.802 18.766C167.961 18.9247 168.04 19.1113 168.04 19.326V22.434C168.04 22.6487 167.965 22.826 167.816 22.966C167.667 23.1153 167.489 23.19 167.284 23.19H167.144C166.976 23.19 166.831 23.1293 166.71 23.008C166.589 22.896 166.528 22.756 166.528 22.588C166.528 22.5227 166.5 22.49 166.444 22.49H159.556C159.491 22.49 159.458 22.5227 159.458 22.588C159.458 22.756 159.397 22.896 159.276 23.008C159.164 23.1293 159.024 23.19 158.856 23.19H158.716C158.511 23.19 158.333 23.1153 158.184 22.966C158.035 22.826 157.96 22.6487 157.96 22.434V19.326C157.96 19.1113 158.039 18.9247 158.198 18.766C158.357 18.6073 158.543 18.528 158.758 18.528H161.516C161.591 18.528 161.642 18.4953 161.67 18.43ZM160.494 16.512H165.506C165.59 16.512 165.632 16.47 165.632 16.386V15.224C165.632 15.14 165.59 15.098 165.506 15.098H160.494C160.41 15.098 160.368 15.14 160.368 15.224V16.386C160.368 16.47 160.41 16.512 160.494 16.512ZM166.416 19.732H159.584C159.5 19.732 159.458 19.7693 159.458 19.844V21.286C159.458 21.37 159.5 21.412 159.584 21.412H166.416C166.491 21.412 166.528 21.37 166.528 21.286V19.844C166.528 19.7693 166.491 19.732 166.416 19.732ZM157.666 15.84C157.451 15.84 157.269 15.7653 157.12 15.616C156.98 15.4667 156.91 15.2893 156.91 15.084V12.886C156.91 12.6713 156.989 12.4893 157.148 12.34C157.307 12.1813 157.493 12.102 157.708 12.102H158.87C158.898 12.102 158.917 12.088 158.926 12.06C158.945 12.032 158.945 12.004 158.926 11.976C158.898 11.9293 158.805 11.766 158.646 11.486C158.553 11.3273 158.534 11.1593 158.59 10.982C158.646 10.7953 158.763 10.6693 158.94 10.604C159.127 10.5293 159.318 10.5247 159.514 10.59C159.71 10.6553 159.859 10.7767 159.962 10.954C160.139 11.2527 160.326 11.5933 160.522 11.976C160.559 12.06 160.615 12.102 160.69 12.102H162.174C162.202 12.102 162.221 12.0927 162.23 12.074C162.249 12.046 162.253 12.0227 162.244 12.004C162.235 11.9853 162.118 11.766 161.894 11.346C161.801 11.1873 161.782 11.0193 161.838 10.842C161.903 10.6553 162.025 10.5293 162.202 10.464C162.389 10.3893 162.575 10.3847 162.762 10.45C162.958 10.5153 163.107 10.6367 163.21 10.814C163.387 11.1313 163.588 11.5233 163.812 11.99C163.84 12.0647 163.901 12.102 163.994 12.102H165.31C165.394 12.102 165.459 12.06 165.506 11.976C165.693 11.668 165.898 11.3087 166.122 10.898C166.225 10.7207 166.365 10.59 166.542 10.506C166.729 10.422 166.92 10.408 167.116 10.464C167.293 10.5107 167.415 10.6227 167.48 10.8C167.555 10.968 167.55 11.1313 167.466 11.29C167.382 11.4487 167.247 11.6867 167.06 12.004C167.051 12.0227 167.051 12.046 167.06 12.074C167.079 12.0927 167.102 12.102 167.13 12.102H168.292C168.507 12.102 168.693 12.1813 168.852 12.34C169.011 12.4893 169.09 12.6713 169.09 12.886V15.084C169.09 15.2893 169.015 15.4667 168.866 15.616C168.726 15.7653 168.549 15.84 168.334 15.84C168.129 15.84 167.951 15.77 167.802 15.63C167.662 15.4807 167.592 15.2987 167.592 15.084V13.404C167.592 13.3293 167.55 13.292 167.466 13.292H158.534C158.45 13.292 158.408 13.3293 158.408 13.404V15.084C158.408 15.2987 158.333 15.4807 158.184 15.63C158.044 15.77 157.871 15.84 157.666 15.84ZM171.848 22.868C171.671 22.9333 171.489 22.9287 171.302 22.854C171.115 22.7793 170.975 22.658 170.882 22.49C170.798 22.3407 170.789 22.1867 170.854 22.028C170.929 21.8693 171.045 21.7667 171.204 21.72C172.94 21.2347 174.312 20.7307 175.32 20.208C175.329 20.1987 175.334 20.1893 175.334 20.18C175.334 20.1613 175.325 20.152 175.306 20.152H171.722C171.563 20.152 171.428 20.096 171.316 19.984C171.204 19.8627 171.148 19.7227 171.148 19.564C171.148 19.4053 171.204 19.27 171.316 19.158C171.428 19.046 171.563 18.99 171.722 18.99H176.202C176.286 18.99 176.328 18.948 176.328 18.864V18.332C176.328 18.2573 176.286 18.22 176.202 18.22H172.324C172.175 18.22 172.044 18.1687 171.932 18.066C171.829 17.954 171.778 17.8233 171.778 17.674C171.778 17.5247 171.829 17.3987 171.932 17.296C172.044 17.184 172.175 17.128 172.324 17.128H176.202C176.286 17.128 176.328 17.0907 176.328 17.016V16.484C176.328 16.4 176.286 16.358 176.202 16.358H171.848C171.689 16.358 171.554 16.3067 171.442 16.204C171.339 16.092 171.288 15.9567 171.288 15.798C171.288 15.6393 171.339 15.5087 171.442 15.406C171.554 15.294 171.689 15.238 171.848 15.238H174.102C174.186 15.238 174.209 15.2007 174.172 15.126C174.051 14.818 173.859 14.356 173.598 13.74C173.57 13.6653 173.514 13.628 173.43 13.628H171.596C171.437 13.628 171.297 13.572 171.176 13.46C171.064 13.3387 171.008 13.1987 171.008 13.04C171.008 12.8813 171.064 12.7413 171.176 12.62C171.297 12.4987 171.437 12.438 171.596 12.438H172.506C172.534 12.438 172.553 12.4287 172.562 12.41C172.581 12.382 172.581 12.3587 172.562 12.34C172.366 11.9947 172.259 11.808 172.24 11.78C172.147 11.6307 172.128 11.4767 172.184 11.318C172.24 11.15 172.347 11.0333 172.506 10.968C172.683 10.8933 172.865 10.8887 173.052 10.954C173.239 11.01 173.379 11.1173 173.472 11.276C173.649 11.556 173.85 11.906 174.074 12.326C174.102 12.4007 174.163 12.438 174.256 12.438H174.984C175.059 12.438 175.096 12.4007 175.096 12.326V11.234C175.096 11.0473 175.161 10.8887 175.292 10.758C175.432 10.618 175.595 10.548 175.782 10.548C175.969 10.548 176.127 10.618 176.258 10.758C176.398 10.8887 176.468 11.0473 176.468 11.234V12.326C176.468 12.4007 176.51 12.438 176.594 12.438H177.602C177.686 12.438 177.728 12.4007 177.728 12.326V11.234C177.728 11.0473 177.793 10.8887 177.924 10.758C178.064 10.618 178.227 10.548 178.414 10.548C178.601 10.548 178.759 10.618 178.89 10.758C179.021 10.8887 179.086 11.0473 179.086 11.234V12.326C179.086 12.4007 179.128 12.438 179.212 12.438H180.01C180.094 12.438 180.155 12.4053 180.192 12.34C180.295 12.172 180.486 11.8313 180.766 11.318C180.85 11.15 180.981 11.0333 181.158 10.968C181.335 10.8933 181.513 10.884 181.69 10.94C181.858 10.996 181.975 11.1033 182.04 11.262C182.105 11.4207 182.096 11.5793 182.012 11.738C181.975 11.8127 181.863 12.0133 181.676 12.34C181.657 12.3587 181.653 12.382 181.662 12.41C181.681 12.4287 181.704 12.438 181.732 12.438H182.6C182.759 12.438 182.894 12.4987 183.006 12.62C183.127 12.7413 183.188 12.8813 183.188 13.04C183.188 13.1987 183.127 13.3387 183.006 13.46C182.894 13.572 182.759 13.628 182.6 13.628H180.822C180.747 13.628 180.691 13.67 180.654 13.754C180.439 14.3047 180.239 14.7713 180.052 15.154C180.015 15.21 180.038 15.238 180.122 15.238H182.348C182.507 15.238 182.637 15.294 182.74 15.406C182.852 15.5087 182.908 15.6393 182.908 15.798C182.908 15.9567 182.852 16.092 182.74 16.204C182.637 16.3067 182.507 16.358 182.348 16.358H177.994C177.91 16.358 177.868 16.4 177.868 16.484V17.016C177.868 17.0907 177.91 17.128 177.994 17.128H181.872C182.021 17.128 182.147 17.184 182.25 17.296C182.362 17.3987 182.418 17.5247 182.418 17.674C182.418 17.8233 182.362 17.954 182.25 18.066C182.147 18.1687 182.021 18.22 181.872 18.22H177.994C177.91 18.22 177.868 18.2573 177.868 18.332V18.864C177.868 18.948 177.91 18.99 177.994 18.99H182.474C182.633 18.99 182.768 19.046 182.88 19.158C182.992 19.27 183.048 19.4053 183.048 19.564C183.048 19.7227 182.992 19.8627 182.88 19.984C182.768 20.096 182.633 20.152 182.474 20.152H178.89C178.871 20.1613 178.862 20.1753 178.862 20.194C179.898 20.7353 181.275 21.244 182.992 21.72C183.151 21.7667 183.263 21.8693 183.328 22.028C183.403 22.1867 183.398 22.3407 183.314 22.49C183.221 22.6673 183.081 22.7887 182.894 22.854C182.717 22.9287 182.535 22.9333 182.348 22.868C180.547 22.2893 179.081 21.6453 177.952 20.936C177.896 20.8987 177.868 20.9173 177.868 20.992V22.49C177.868 22.7047 177.789 22.8867 177.63 23.036C177.481 23.1853 177.303 23.26 177.098 23.26C176.893 23.26 176.711 23.1853 176.552 23.036C176.403 22.8867 176.328 22.7047 176.328 22.49V20.992C176.328 20.964 176.314 20.9453 176.286 20.936C176.258 20.9173 176.235 20.9173 176.216 20.936C175.068 21.6547 173.612 22.2987 171.848 22.868ZM175.852 15.238H178.33C178.405 15.238 178.465 15.2007 178.512 15.126C178.801 14.5847 179.016 14.1227 179.156 13.74C179.175 13.6653 179.147 13.628 179.072 13.628H175.208C175.18 13.628 175.157 13.642 175.138 13.67C175.129 13.698 175.129 13.726 175.138 13.754C175.399 14.37 175.586 14.832 175.698 15.14C175.726 15.2053 175.777 15.238 175.852 15.238ZM196.194 15.812C196.11 15.812 196.068 15.8493 196.068 15.924V16.988C196.068 17.0627 196.11 17.1 196.194 17.1H196.768C196.945 17.1 197.095 17.1607 197.216 17.282C197.347 17.4033 197.412 17.5527 197.412 17.73C197.412 17.9073 197.347 18.0567 197.216 18.178C197.095 18.2993 196.945 18.36 196.768 18.36H196.194C196.11 18.36 196.068 18.402 196.068 18.486V21.048C196.068 21.4027 196.063 21.6827 196.054 21.888C196.045 22.084 196.012 22.2707 195.956 22.448C195.9 22.6253 195.835 22.7513 195.76 22.826C195.685 22.9007 195.564 22.966 195.396 23.022C195.228 23.0873 195.046 23.1247 194.85 23.134C194.663 23.1433 194.407 23.148 194.08 23.148C193.669 23.148 193.296 23.1387 192.96 23.12C192.773 23.1107 192.615 23.0407 192.484 22.91C192.363 22.7887 192.297 22.6347 192.288 22.448C192.279 22.28 192.335 22.1353 192.456 22.014C192.587 21.902 192.736 21.8507 192.904 21.86C193.193 21.8787 193.501 21.888 193.828 21.888C194.192 21.888 194.407 21.8553 194.472 21.79C194.537 21.7153 194.57 21.482 194.57 21.09V18.486C194.57 18.402 194.528 18.36 194.444 18.36H190.16C189.983 18.36 189.833 18.2993 189.712 18.178C189.591 18.0567 189.53 17.9073 189.53 17.73C189.53 17.5527 189.591 17.4033 189.712 17.282C189.833 17.1607 189.983 17.1 190.16 17.1H194.444C194.528 17.1 194.57 17.0627 194.57 16.988V15.924C194.57 15.8493 194.528 15.812 194.444 15.812H190.16C189.983 15.812 189.833 15.7513 189.712 15.63C189.591 15.5087 189.53 15.3593 189.53 15.182C189.53 15.0047 189.591 14.8553 189.712 14.734C189.833 14.6127 189.983 14.552 190.16 14.552H192.596C192.671 14.552 192.708 14.51 192.708 14.426V13.124C192.708 13.0493 192.671 13.012 192.596 13.012H190.734C190.566 13.012 190.421 12.9513 190.3 12.83C190.188 12.7087 190.132 12.564 190.132 12.396C190.132 12.228 190.188 12.0833 190.3 11.962C190.421 11.8407 190.566 11.78 190.734 11.78H192.596C192.671 11.78 192.708 11.738 192.708 11.654V11.136C192.708 10.9307 192.783 10.7533 192.932 10.604C193.081 10.4547 193.259 10.38 193.464 10.38C193.669 10.38 193.847 10.4547 193.996 10.604C194.145 10.7533 194.22 10.9307 194.22 11.136V11.654C194.22 11.738 194.262 11.78 194.346 11.78H196.306C196.474 11.78 196.614 11.8407 196.726 11.962C196.847 12.0833 196.908 12.228 196.908 12.396C196.908 12.564 196.847 12.7087 196.726 12.83C196.614 12.9513 196.474 13.012 196.306 13.012H194.346C194.262 13.012 194.22 13.0493 194.22 13.124V14.426C194.22 14.51 194.262 14.552 194.346 14.552H196.768C196.945 14.552 197.095 14.6127 197.216 14.734C197.347 14.8553 197.412 15.0047 197.412 15.182C197.412 15.3593 197.347 15.5087 197.216 15.63C197.095 15.7513 196.945 15.812 196.768 15.812H196.194ZM186.142 22.63C186.011 22.77 185.848 22.84 185.652 22.84C185.456 22.84 185.288 22.77 185.148 22.63C185.017 22.4993 184.952 22.336 184.952 22.14V12.018C184.952 11.8033 185.027 11.6167 185.176 11.458C185.335 11.2993 185.521 11.22 185.736 11.22H188.312C188.527 11.22 188.713 11.2993 188.872 11.458C189.031 11.6167 189.11 11.8033 189.11 12.018V21.202C189.11 21.4167 189.031 21.6033 188.872 21.762C188.713 21.9207 188.527 22 188.312 22H186.45C186.385 22 186.352 22.0373 186.352 22.112V22.14C186.352 22.336 186.282 22.4993 186.142 22.63ZM186.352 12.634V15.686C186.352 15.77 186.389 15.812 186.464 15.812H187.626C187.71 15.812 187.752 15.77 187.752 15.686V12.634C187.752 12.55 187.71 12.508 187.626 12.508H186.464C186.389 12.508 186.352 12.55 186.352 12.634ZM186.352 17.184V20.628C186.352 20.7027 186.389 20.74 186.464 20.74H187.626C187.71 20.74 187.752 20.7027 187.752 20.628V17.184C187.752 17.1093 187.71 17.072 187.626 17.072H186.464C186.389 17.072 186.352 17.1093 186.352 17.184ZM192.624 20.194C192.755 20.334 192.815 20.4973 192.806 20.684C192.806 20.8707 192.736 21.0293 192.596 21.16C192.465 21.2813 192.307 21.342 192.12 21.342C191.933 21.3327 191.775 21.2627 191.644 21.132C191.215 20.6653 190.827 20.2733 190.482 19.956C190.351 19.8253 190.281 19.6713 190.272 19.494C190.263 19.3167 190.323 19.1627 190.454 19.032C190.594 18.9013 190.757 18.8313 190.944 18.822C191.14 18.8127 191.308 18.8733 191.448 19.004C191.793 19.3213 192.185 19.718 192.624 20.194ZM200.198 22.938C200.058 23.078 199.885 23.148 199.68 23.148C199.475 23.148 199.302 23.078 199.162 22.938C199.022 22.798 198.952 22.6253 198.952 22.42V11.738C198.952 11.5233 199.027 11.3367 199.176 11.178C199.335 11.0193 199.521 10.94 199.736 10.94H203.754C203.969 10.94 204.155 11.0193 204.314 11.178C204.473 11.3367 204.552 11.5233 204.552 11.738V15.392C204.552 15.6067 204.473 15.7933 204.314 15.952C204.155 16.1107 203.969 16.19 203.754 16.19H200.534C200.45 16.19 200.408 16.232 200.408 16.316V22.42C200.408 22.6253 200.338 22.798 200.198 22.938ZM200.408 12.256V13.026C200.408 13.11 200.45 13.152 200.534 13.152H202.984C203.068 13.152 203.11 13.11 203.11 13.026V12.256C203.11 12.172 203.068 12.13 202.984 12.13H200.534C200.45 12.13 200.408 12.172 200.408 12.256ZM200.408 14.244V15.028C200.408 15.1027 200.45 15.14 200.534 15.14H202.984C203.068 15.14 203.11 15.1027 203.11 15.028V14.244C203.11 14.1693 203.068 14.132 202.984 14.132H200.534C200.45 14.132 200.408 14.1693 200.408 14.244ZM210.264 10.94C210.479 10.94 210.661 11.0193 210.81 11.178C210.969 11.3367 211.048 11.5233 211.048 11.738V21.048C211.048 21.972 210.941 22.5413 210.726 22.756C210.521 22.98 209.965 23.092 209.06 23.092C208.836 23.092 208.439 23.078 207.87 23.05C207.693 23.0407 207.539 22.9753 207.408 22.854C207.287 22.7327 207.221 22.5787 207.212 22.392C207.212 22.2707 207.231 22.1727 207.268 22.098C207.315 22.0327 207.296 22 207.212 22H203.488C203.423 22 203.39 22.0327 203.39 22.098C203.39 22.266 203.329 22.406 203.208 22.518C203.096 22.6393 202.956 22.7 202.788 22.7H202.69C202.494 22.7 202.326 22.63 202.186 22.49C202.055 22.3593 201.99 22.196 201.99 22V17.786C201.99 17.5713 202.069 17.3847 202.228 17.226C202.387 17.0673 202.573 16.988 202.788 16.988H207.212C207.427 16.988 207.613 17.0673 207.772 17.226C207.931 17.3847 208.01 17.5713 208.01 17.786V21.202C208.01 21.3887 207.949 21.5567 207.828 21.706C207.791 21.762 207.809 21.79 207.884 21.79C208.351 21.818 208.659 21.832 208.808 21.832C209.181 21.832 209.405 21.7993 209.48 21.734C209.555 21.6593 209.592 21.4447 209.592 21.09V16.316C209.592 16.232 209.55 16.19 209.466 16.19H206.106C205.891 16.19 205.705 16.1107 205.546 15.952C205.387 15.7933 205.308 15.6067 205.308 15.392V11.738C205.308 11.5233 205.387 11.3367 205.546 11.178C205.705 11.0193 205.891 10.94 206.106 10.94H210.264ZM206.61 20.796V20.124C206.61 20.04 206.568 19.998 206.484 19.998H203.516C203.432 19.998 203.39 20.04 203.39 20.124V20.796C203.39 20.8707 203.432 20.908 203.516 20.908H206.484C206.568 20.908 206.61 20.8707 206.61 20.796ZM206.61 18.836V18.234C206.61 18.15 206.568 18.108 206.484 18.108H203.516C203.432 18.108 203.39 18.15 203.39 18.234V18.836C203.39 18.9107 203.432 18.948 203.516 18.948H206.484C206.568 18.948 206.61 18.9107 206.61 18.836ZM209.592 15.028V14.244C209.592 14.1693 209.55 14.132 209.466 14.132H206.876C206.792 14.132 206.75 14.1693 206.75 14.244V15.028C206.75 15.1027 206.792 15.14 206.876 15.14H209.466C209.55 15.14 209.592 15.1027 209.592 15.028ZM209.592 13.026V12.256C209.592 12.172 209.55 12.13 209.466 12.13H206.876C206.792 12.13 206.75 12.172 206.75 12.256V13.026C206.75 13.11 206.792 13.152 206.876 13.152H209.466C209.55 13.152 209.592 13.11 209.592 13.026Z" fill="black" fill-opacity="0.6"/>
</svg>
